<svg width="222" height="37" viewBox="0 0 222 37" fill="none" xmlns="http://www.w3.org/2000/svg">
<path d="M112.062 36.5019C111.557 37.166 110.442 37.166 109.937 36.5019L104.029 28.7375C103.463 27.9946 104.072 27 105.091 27L116.908 27C117.927 27 118.535 27.9946 117.97 28.7375L112.062 36.5019Z" fill="#333333"/>
<rect width="222" height="29" rx="4" fill="#333333"/>
<circle cx="16.5" cy="14.5" r="5.73636" stroke="#DCFF91" stroke-width="1.52727"/>
<line x1="16.2364" y1="14.8433" x2="16.2364" y2="11.3706" stroke="#DCFF91" stroke-width="1.52727" stroke-linecap="round"/>
<line x1="16.3837" y1="15.1069" x2="18.1321" y2="16.8554" stroke="#DCFF91" stroke-width="1.52727" stroke-linecap="round"/>
<path d="M40.672 8.98H39.088V20.032H40.672V8.98ZM35.788 11.956V11.344H38.068V10.036H31.876V11.344H34.18V11.956C34.18 13.84 33.292 15.868 31.432 16.696L32.332 17.956C33.628 17.368 34.516 16.168 35.008 14.716C35.5 16.072 36.364 17.116 37.66 17.68L38.524 16.432C36.676 15.664 35.788 13.756 35.788 11.956ZM52.4431 13.456H51.0151C51.2671 12.172 51.2671 11.26 51.2671 10.36V9.472H43.6711V10.732H49.7071C49.7071 11.5 49.6711 12.352 49.4431 13.456H42.4351V14.716H52.4431V13.456ZM43.6111 15.868V19.9H51.2191V15.868H43.6111ZM45.1711 18.664V17.104H49.6711V18.664H45.1711ZM65.1329 17.044V8.992H63.5369V17.044H65.1329ZM61.9169 15.376L62.7209 14.116C60.9329 13.54 60.1529 12.124 60.1529 10.672V9.592H58.5449V10.672C58.5449 12.112 57.7529 13.696 55.9169 14.308L56.7209 15.568C58.0169 15.124 58.8569 14.224 59.3729 13.108C59.8529 14.164 60.6689 14.956 61.9169 15.376ZM65.4089 18.58H59.3609V16.276H57.7769V19.84H65.4089V18.58ZM72.7879 15.304L73.5079 14.092C71.7319 13.612 70.9639 12.532 70.9279 11.368H73.1119V10.12H70.9279V8.944H69.3439V10.12H67.1839V11.368H69.3439C69.3079 12.604 68.5639 13.84 66.7999 14.356L67.5439 15.58C68.8399 15.208 69.6919 14.428 70.1839 13.42C70.6999 14.296 71.5399 14.98 72.7879 15.304ZM74.5279 11.932H72.8119V13.204H74.5279V15.652H76.1119V8.98H74.5279V11.932ZM72.3799 15.844C70.0279 15.844 68.5879 16.6 68.5879 17.944C68.5879 19.264 70.0279 20.032 72.3799 20.032C74.7199 20.032 76.1599 19.264 76.1599 17.944C76.1599 16.6 74.7199 15.844 72.3799 15.844ZM72.3799 18.82C70.9039 18.82 70.1719 18.532 70.1719 17.944C70.1719 17.356 70.9039 17.056 72.3799 17.056C73.8439 17.056 74.5759 17.356 74.5759 17.944C74.5759 18.556 73.8319 18.82 72.3799 18.82ZM88.051 14.608V13.3H86.467V8.98H84.883V20.032H86.467V14.608H88.051ZM81.763 10.612V9.172H80.179V10.612H77.731V11.872H84.163V10.612H81.763ZM80.983 12.496C79.375 12.496 78.175 13.588 78.175 15.124C78.175 16.696 79.375 17.776 80.983 17.776C82.579 17.776 83.767 16.696 83.767 15.124C83.767 13.588 82.579 12.496 80.983 12.496ZM80.983 16.48C80.215 16.48 79.687 16 79.687 15.136C79.687 14.272 80.215 13.78 80.983 13.78C81.751 13.78 82.267 14.296 82.267 15.124C82.267 15.988 81.751 16.48 80.983 16.48ZM94.3741 15.268V14.356H96.3661V17.032H97.9501V8.98H96.3661V10.72H94.3741V9.868H89.1661V15.268H94.3741ZM92.8261 11.104V14.02H90.7261V11.104H92.8261ZM94.3741 11.98H96.3661V13.096H94.3741V11.98ZM98.1901 18.58H92.2381V16.276H90.6541V19.84H98.1901V18.58ZM111.408 8.98H109.812V14.92H111.408V8.98ZM105.396 9.436C103.68 9.436 102.384 10.528 102.384 12.04C102.384 13.576 103.68 14.656 105.396 14.656C107.112 14.656 108.396 13.576 108.396 12.04C108.396 10.528 107.112 9.436 105.396 9.436ZM105.396 10.744C106.26 10.744 106.848 11.224 106.848 12.04C106.848 12.868 106.26 13.348 105.396 13.348C104.532 13.348 103.932 12.868 103.932 12.04C103.932 11.224 104.532 10.744 105.396 10.744ZM105.636 15.4H104.064V19.9H111.408V15.4H109.836V16.432H105.636V15.4ZM105.636 18.652V17.644H109.836V18.652H105.636ZM123.155 13.456H121.727C121.979 12.172 121.979 11.26 121.979 10.36V9.472H114.383V10.732H120.419C120.419 11.5 120.383 12.352 120.155 13.456H113.147V14.716H123.155V13.456ZM114.323 15.868V19.9H121.931V15.868H114.323ZM115.883 18.664V17.104H120.383V18.664H115.883ZM134.278 14.608V13.3H132.85V8.968H131.254V20.02H132.85V14.608H134.278ZM127.318 10.108H124.33V11.38H125.818C125.722 13.6 125.314 15.184 123.838 16.816L125.074 17.716C127.03 15.532 127.318 13.156 127.318 10.108ZM130.366 10.108H127.69V11.38H128.878C128.782 13.84 128.41 15.676 126.934 17.536L128.182 18.412C130.102 16.012 130.366 13.312 130.366 10.108ZM144.141 8.98H142.557V20.032H144.141V8.98ZM139.257 11.956V11.344H141.537V10.036H135.345V11.344H137.649V11.956C137.649 13.84 136.761 15.868 134.901 16.696L135.801 17.956C137.097 17.368 137.985 16.168 138.477 14.716C138.969 16.072 139.833 17.116 141.129 17.68L141.993 16.432C140.145 15.664 139.257 13.756 139.257 11.956Z" fill="white"/>
<path d="M157.203 11.704H158.619V10.42H157.203V8.98H155.619V15.496H157.203V14.104H158.619V12.808H157.203V11.704ZM154.575 12.292C154.575 10.72 153.279 9.58 151.587 9.58C149.883 9.58 148.587 10.72 148.587 12.292C148.587 13.876 149.883 14.992 151.587 14.992C153.279 14.992 154.575 13.876 154.575 12.292ZM150.135 12.292C150.135 11.428 150.723 10.924 151.587 10.924C152.415 10.924 153.039 11.428 153.039 12.292C153.039 13.156 152.415 13.66 151.587 13.66C150.723 13.66 150.135 13.156 150.135 12.292ZM149.835 15.94V17.212H155.619V20.044H157.203V15.94H149.835ZM166.401 10.024H164.985L162.393 12.256L163.341 13.336L164.805 12.004L164.757 12.784V17.668H163.005V19H167.949V17.668H166.401V10.024ZM174.473 15.472V9.94H172.925C171.521 11.776 170.177 13.648 168.773 15.484V16.828H173.021V19H174.473V16.828H175.601V15.472H174.473ZM173.021 12.7V15.496H170.405L173.045 11.944C173.033 12.268 173.021 12.592 173.021 12.7ZM184.802 13.876V9.328H183.23V10.456H178.922V9.328H177.35V13.876H184.802ZM183.23 11.644V12.64H178.922V11.644H183.23ZM186.086 14.644H176.066V15.892H180.422V17.632H182.006V15.892H186.086V14.644ZM178.814 18.58V16.804H177.23V19.84H184.982V18.58H178.814ZM199.075 8.968H197.575V20.02H199.075V8.968ZM195.379 9.16V11.416H194.107C193.687 10.348 193.003 9.76 192.091 9.76C190.615 9.76 189.691 11.272 189.691 13.768C189.691 16.276 190.615 17.788 192.091 17.788C193.003 17.788 193.699 17.176 194.119 16.108H195.379V19.528H196.855V9.16H195.379ZM192.091 16.3C191.467 16.3 191.107 15.46 191.107 13.768C191.107 12.076 191.467 11.248 192.091 11.248C192.703 11.248 193.063 12.076 193.063 13.768C193.063 15.46 192.703 16.3 192.091 16.3ZM195.379 14.824H194.419C194.455 14.5 194.479 14.14 194.479 13.768C194.479 13.384 194.455 13.024 194.407 12.688H195.379V14.824ZM210.678 11.548H209.214V8.992H207.63V15.52H209.214V12.856H210.678V11.548ZM206.202 15.1L207.03 13.876C205.29 13.324 204.546 12.04 204.546 10.708V9.58H202.938V10.576C202.938 12.076 202.206 13.552 200.346 14.164L201.174 15.412C202.434 14.98 203.286 14.14 203.766 13.036C204.234 13.996 205.038 14.716 206.202 15.1ZM205.602 15.772C203.286 15.772 201.858 16.564 201.858 17.896C201.858 19.24 203.286 20.032 205.602 20.032C207.906 20.032 209.334 19.24 209.334 17.896C209.334 16.564 207.906 15.772 205.602 15.772ZM205.602 18.808C204.15 18.808 203.43 18.508 203.43 17.896C203.43 17.296 204.15 16.996 205.602 16.996C207.006 16.996 207.762 17.284 207.762 17.896C207.762 18.52 207.006 18.808 205.602 18.808Z" fill="#DCFF91"/>
</svg>
