<svg width="189" height="48" viewBox="0 0 189 48" fill="none" xmlns="http://www.w3.org/2000/svg">
<rect width="189" height="48" rx="24" fill="#F5F5F5"/>
<rect x="16.4004" y="12" width="19.2" height="24" rx="1.52432" fill="#DEE0E8"/>
<path d="M21.748 20.1512L25.047 23.9999L30.1328 16.4399" stroke="#2B82FD" stroke-width="2.88" stroke-linecap="round" stroke-linejoin="round"/>
<rect x="18.4404" y="28.5601" width="15.12" height="1.68" rx="0.84" fill="#BFC7D1"/>
<rect x="18.4404" y="31.4399" width="9.96" height="1.68" rx="0.84" fill="#BFC7D1"/>
<path d="M61.21 21.356H63.926V17.492H65.088V26.76H63.926V22.294H61.21V21.356ZM55.568 18.458H61.266C61.266 19.2607 61.126 20.0167 60.846 20.726C60.5753 21.4353 60.1833 22.084 59.67 22.672C59.166 23.2507 58.5547 23.764 57.836 24.212C57.1173 24.66 56.3147 25.0287 55.428 25.318L54.938 24.394C55.6567 24.1607 56.3147 23.876 56.912 23.54C57.5093 23.1947 58.0273 22.812 58.466 22.392C58.9047 21.9627 59.2593 21.496 59.53 20.992C59.8007 20.488 59.9687 19.956 60.034 19.396H55.568V18.458ZM58.298 28.818H65.41V29.756H57.15V25.822H58.298V28.818ZM77.2249 20.726H79.0869V21.678H77.2249V24.982H76.0769V17.478H77.2249V20.726ZM68.0409 18.416H73.8369C73.8369 19.2093 73.7016 19.9513 73.4309 20.642C73.1602 21.3327 72.7729 21.958 72.2689 22.518C71.7649 23.078 71.1489 23.568 70.4209 23.988C69.7022 24.408 68.8856 24.7533 67.9709 25.024L67.5089 24.1C69.0022 23.652 70.1922 23.022 71.0789 22.21C71.9749 21.3887 72.4789 20.432 72.5909 19.34H68.0409V18.416ZM73.2909 25.15C73.9069 25.15 74.4669 25.206 74.9709 25.318C75.4749 25.43 75.9042 25.5933 76.2589 25.808C76.6229 26.0133 76.8982 26.2653 77.0849 26.564C77.2809 26.8627 77.3789 27.2033 77.3789 27.586C77.3789 27.9593 77.2809 28.3 77.0849 28.608C76.8982 28.9067 76.6229 29.1587 76.2589 29.364C75.9042 29.5787 75.4749 29.742 74.9709 29.854C74.4669 29.966 73.9069 30.022 73.2909 30.022C72.6749 30.022 72.1149 29.966 71.6109 29.854C71.1069 29.742 70.6729 29.5787 70.3089 29.364C69.9542 29.1587 69.6789 28.9067 69.4829 28.608C69.2962 28.3 69.2029 27.9593 69.2029 27.586C69.2029 27.2033 69.2962 26.8627 69.4829 26.564C69.6789 26.2653 69.9542 26.0133 70.3089 25.808C70.6729 25.5933 71.1069 25.43 71.6109 25.318C72.1149 25.206 72.6749 25.15 73.2909 25.15ZM73.2909 29.112C74.1962 29.112 74.9149 28.9767 75.4469 28.706C75.9789 28.4353 76.2449 28.062 76.2449 27.586C76.2449 27.1007 75.9789 26.7227 75.4469 26.452C74.9149 26.1813 74.1962 26.046 73.2909 26.046C72.3856 26.046 71.6669 26.1813 71.1349 26.452C70.6029 26.7227 70.3369 27.1007 70.3369 27.586C70.3369 28.062 70.6029 28.4353 71.1349 28.706C71.6669 28.9767 72.3856 29.112 73.2909 29.112ZM86.4778 27.488H91.6018V28.426H80.2198V27.488H85.3158V24.786H81.5638V18.374H82.6978V20.614H89.1098V18.374H90.2298V24.786H86.4778V27.488ZM82.6978 21.552V23.862H89.1098V21.552H82.6978ZM100.253 18.794V19.718H92.9727V18.794H96.0387V17.352H97.1867V18.794H100.253ZM102.143 17.492H103.305V25.08H102.143V22.238H100.057V21.3H102.143V17.492ZM99.5107 22.602C99.5107 22.938 99.4361 23.246 99.2867 23.526C99.1467 23.7967 98.9461 24.03 98.6847 24.226C98.4327 24.4127 98.1294 24.562 97.7747 24.674C97.4201 24.7767 97.0327 24.828 96.6127 24.828C96.1834 24.828 95.7914 24.7767 95.4367 24.674C95.0821 24.562 94.7741 24.4127 94.5127 24.226C94.2607 24.03 94.0601 23.7967 93.9107 23.526C93.7707 23.246 93.7007 22.938 93.7007 22.602C93.7007 22.266 93.7707 21.9627 93.9107 21.692C94.0601 21.412 94.2607 21.174 94.5127 20.978C94.7741 20.782 95.0821 20.6327 95.4367 20.53C95.7914 20.418 96.1834 20.362 96.6127 20.362C97.0327 20.362 97.4201 20.418 97.7747 20.53C98.1294 20.6327 98.4327 20.782 98.6847 20.978C98.9461 21.174 99.1467 21.412 99.2867 21.692C99.4361 21.9627 99.5107 22.266 99.5107 22.602ZM94.7927 22.602C94.7927 23.022 94.9607 23.358 95.2967 23.61C95.6421 23.8527 96.0807 23.974 96.6127 23.974C97.1447 23.974 97.5787 23.8527 97.9147 23.61C98.2601 23.358 98.4327 23.022 98.4327 22.602C98.4327 22.182 98.2601 21.8507 97.9147 21.608C97.5787 21.356 97.1447 21.23 96.6127 21.23C96.0807 21.23 95.6421 21.356 95.2967 21.608C94.9607 21.8507 94.7927 22.182 94.7927 22.602ZM95.1427 29.868V25.752H103.305V29.868H95.1427ZM96.2627 26.662V28.944H102.185V26.662H96.2627ZM120.42 22.546V23.512H118.348V30.036H117.2V17.492H118.348V22.546H120.42ZM112.916 19.718V21.314C112.916 21.818 113 22.3267 113.168 22.84C113.336 23.344 113.565 23.8247 113.854 24.282C114.153 24.7393 114.498 25.1547 114.89 25.528C115.282 25.892 115.707 26.1813 116.164 26.396L115.506 27.32C114.806 26.9653 114.176 26.4473 113.616 25.766C113.056 25.0847 112.636 24.3193 112.356 23.47C112.216 23.9273 112.034 24.3707 111.81 24.8C111.596 25.22 111.348 25.612 111.068 25.976C110.788 26.3307 110.485 26.6527 110.158 26.942C109.841 27.222 109.505 27.4507 109.15 27.628L108.478 26.718C108.926 26.494 109.351 26.186 109.752 25.794C110.154 25.402 110.504 24.9633 110.802 24.478C111.101 23.9927 111.339 23.4793 111.516 22.938C111.694 22.3873 111.782 21.846 111.782 21.314V19.718H108.912V18.766H115.702V19.718H112.916ZM130.611 17.478H131.773V24.968H130.611V23.316H127.363V22.378H130.611V20.656H127.545C127.125 21.6453 126.453 22.49 125.529 23.19C124.605 23.8807 123.453 24.422 122.071 24.814L121.609 23.89C122.365 23.6847 123.051 23.428 123.667 23.12C124.283 22.812 124.811 22.462 125.249 22.07C125.688 21.678 126.038 21.244 126.299 20.768C126.561 20.292 126.719 19.788 126.775 19.256H122.267V18.318H128.007C128.007 18.8033 127.951 19.27 127.839 19.718H130.611V17.478ZM123.373 26.452V25.528H131.773V30.008H130.611V26.452H123.373ZM144.619 18.626V19.494H137.409V18.626H140.447V17.394H141.595V18.626H144.619ZM148.735 21.286V22.238H146.887V25.906H145.739V17.492H146.887V21.286H148.735ZM144.997 24.226L145.081 25.052C144.409 25.1733 143.723 25.2667 143.023 25.332C142.332 25.3973 141.646 25.4487 140.965 25.486C140.293 25.514 139.64 25.5327 139.005 25.542C138.37 25.542 137.778 25.542 137.227 25.542L137.101 24.618C137.605 24.618 138.132 24.618 138.683 24.618C139.243 24.6087 139.831 24.5947 140.447 24.576V23.666C139.719 23.5913 139.14 23.4 138.711 23.092C138.291 22.7747 138.081 22.35 138.081 21.818C138.081 21.23 138.342 20.7727 138.865 20.446C139.397 20.1193 140.116 19.956 141.021 19.956C141.898 19.956 142.603 20.1193 143.135 20.446C143.676 20.7727 143.947 21.23 143.947 21.818C143.947 22.3313 143.737 22.7513 143.317 23.078C142.897 23.3953 142.323 23.5913 141.595 23.666V24.534C142.183 24.506 142.757 24.4687 143.317 24.422C143.877 24.3753 144.437 24.31 144.997 24.226ZM139.173 21.818C139.173 22.1447 139.336 22.406 139.663 22.602C139.999 22.798 140.452 22.896 141.021 22.896C141.581 22.896 142.024 22.798 142.351 22.602C142.687 22.406 142.855 22.1447 142.855 21.818C142.855 21.4913 142.687 21.2347 142.351 21.048C142.024 20.852 141.581 20.754 141.021 20.754C140.452 20.754 139.999 20.852 139.663 21.048C139.336 21.2347 139.173 21.4913 139.173 21.818ZM138.627 27.446V26.536H146.887V30.036H145.739V27.446H138.627ZM160.2 17.492V26.662H159.052V17.492H160.2ZM156.742 21.44C156.742 21.8973 156.658 22.3173 156.49 22.7C156.322 23.0733 156.089 23.4 155.79 23.68C155.501 23.9507 155.155 24.1653 154.754 24.324C154.353 24.4733 153.919 24.548 153.452 24.548C152.985 24.548 152.551 24.4733 152.15 24.324C151.758 24.1653 151.413 23.9507 151.114 23.68C150.825 23.4 150.596 23.0733 150.428 22.7C150.269 22.3173 150.19 21.8973 150.19 21.44C150.19 20.992 150.269 20.5813 150.428 20.208C150.596 19.8253 150.825 19.4987 151.114 19.228C151.413 18.948 151.758 18.7333 152.15 18.584C152.551 18.4347 152.985 18.36 153.452 18.36C153.919 18.36 154.353 18.4347 154.754 18.584C155.155 18.7333 155.501 18.948 155.79 19.228C156.089 19.4987 156.322 19.8253 156.49 20.208C156.658 20.5813 156.742 20.992 156.742 21.44ZM151.31 21.44C151.31 21.748 151.361 22.0327 151.464 22.294C151.576 22.5553 151.725 22.7793 151.912 22.966C152.108 23.1527 152.337 23.2973 152.598 23.4C152.859 23.5027 153.144 23.554 153.452 23.554C153.76 23.554 154.045 23.5027 154.306 23.4C154.577 23.2973 154.81 23.1527 155.006 22.966C155.202 22.7793 155.351 22.5553 155.454 22.294C155.566 22.0327 155.622 21.748 155.622 21.44C155.622 21.132 155.566 20.852 155.454 20.6C155.351 20.348 155.202 20.1287 155.006 19.942C154.81 19.7553 154.577 19.6107 154.306 19.508C154.045 19.4053 153.76 19.354 153.452 19.354C153.144 19.354 152.859 19.4053 152.598 19.508C152.337 19.6107 152.108 19.7553 151.912 19.942C151.725 20.1287 151.576 20.348 151.464 20.6C151.361 20.852 151.31 21.132 151.31 21.44ZM153.27 28.818H160.578V29.756H152.122V25.724H153.27V28.818ZM171.833 17.478H172.981V30.05H171.833V22.672H168.921V21.734H171.833V17.478ZM167.031 18.556V20.81C167.031 21.3793 167.115 21.944 167.283 22.504C167.451 23.0547 167.68 23.5727 167.969 24.058C168.268 24.5433 168.613 24.9773 169.005 25.36C169.397 25.7333 169.822 26.0273 170.279 26.242L169.607 27.152C168.907 26.7973 168.277 26.2653 167.717 25.556C167.166 24.8467 166.746 24.0533 166.457 23.176C166.177 24.1093 165.762 24.9493 165.211 25.696C164.67 26.4427 164.044 27.0027 163.335 27.376L162.635 26.466C163.092 26.242 163.517 25.9293 163.909 25.528C164.301 25.1267 164.642 24.674 164.931 24.17C165.23 23.666 165.463 23.1247 165.631 22.546C165.799 21.9673 165.883 21.3887 165.883 20.81V18.556H167.031Z" fill="#262626"/>
</svg>
