<svg width="145" height="48" viewBox="0 0 145 48" fill="none" xmlns="http://www.w3.org/2000/svg">
<rect width="145" height="48" rx="24" fill="#F5F5F5"/>
<rect x="32.5879" y="18.6509" width="4.212" height="3.024" rx="0.744827" fill="#494949"/>
<rect x="15.2002" y="18.6509" width="4.212" height="3.024" rx="0.744827" fill="#494949"/>
<path d="M15.2002 29.5752H20.9105V32.058C20.9105 32.6064 20.4659 33.0511 19.9174 33.0511H16.1933C15.6448 33.0511 15.2002 32.6064 15.2002 32.058V29.5752Z" fill="#323232"/>
<path d="M31.0762 29.5752H36.7865V32.058C36.7865 32.6064 36.3419 33.0511 35.7934 33.0511H32.0693C31.5208 33.0511 31.0762 32.6064 31.0762 32.058V29.5752Z" fill="#323232"/>
<path d="M15.2002 23.4045C15.2002 22.7189 15.756 22.1631 16.4416 22.1631H35.5588C36.2444 22.1631 36.8002 22.7189 36.8002 23.4045V30.5871H15.2002V23.4045Z" fill="#545C6F"/>
<path d="M20.2732 15.6977C20.5351 15.2221 21.0351 14.9268 21.578 14.9268H30.5299C31.0728 14.9268 31.5727 15.2221 31.8346 15.6977L35.3959 22.1628H16.7119L20.2732 15.6977Z" fill="#96C2FF"/>
<ellipse cx="18.8001" cy="26.472" rx="1.36552" ry="1.36552" fill="white"/>
<ellipse cx="32.2073" cy="26.472" rx="1.36552" ry="1.36552" fill="white"/>
<path d="M64.402 23.596V30.036H63.254V17.478H64.402V22.644H66.474V23.596H64.402ZM58.942 21.552C58.942 23.554 60.188 25.626 61.994 26.494L61.35 27.39C59.95 26.718 58.928 25.374 58.382 23.736C57.836 25.486 56.73 26.9 55.274 27.614L54.63 26.746C56.464 25.85 57.808 23.736 57.808 21.552V20.572H54.966V19.648H57.794V17.702H58.942V19.648H61.728V20.572H58.942V21.552ZM77.2249 22.084H79.0869V23.036H77.2249V25.08H76.0769V17.492H77.2249V19.438H79.0869V20.39H77.2249V22.084ZM74.9849 23.932C73.0109 24.268 71.3449 24.338 69.0209 24.338H68.0269V20.782H72.5209V19.2H67.9989V18.262H73.6549V21.664H69.1609V23.4C71.3589 23.4 72.9689 23.33 74.8729 22.994L74.9849 23.932ZM73.2209 25.444C75.7549 25.444 77.3509 26.284 77.3509 27.74C77.3509 29.196 75.7549 30.022 73.2209 30.022C70.6589 30.022 69.0909 29.196 69.0909 27.74C69.0909 26.284 70.6589 25.444 73.2209 25.444ZM73.2209 29.14C75.1389 29.14 76.2169 28.636 76.2169 27.74C76.2169 26.844 75.1389 26.34 73.2209 26.34C71.3029 26.34 70.2109 26.844 70.2109 27.74C70.2109 28.636 71.3029 29.14 73.2209 29.14ZM89.4038 17.492H90.5658V24.968H89.4038V21.678H86.9258V20.74H89.4038V17.492ZM87.0518 24.492C85.6518 23.988 84.5738 22.952 84.0278 21.664C83.4818 23.12 82.3338 24.296 80.8638 24.856L80.2618 23.946C82.1238 23.274 83.4258 21.552 83.4258 19.76V19.326H80.6258V18.402H87.3318V19.326H84.5738V19.76C84.5738 21.37 85.8058 22.966 87.6258 23.596L87.0518 24.492ZM86.4218 25.36C88.9978 25.36 90.5938 26.2 90.5938 27.698C90.5938 29.196 88.9978 30.036 86.4218 30.036C83.8458 30.036 82.2358 29.196 82.2358 27.698C82.2358 26.2 83.8458 25.36 86.4218 25.36ZM86.4218 29.14C88.3398 29.14 89.4598 28.608 89.4598 27.698C89.4598 26.788 88.3398 26.242 86.4218 26.242C84.5038 26.242 83.3838 26.788 83.3838 27.698C83.3838 28.608 84.5038 29.14 86.4218 29.14ZM104.341 28.426H92.9587V27.488H98.0547V24.786H94.3027V18.374H95.4367V20.614H101.849V18.374H102.969V24.786H99.2167V27.488H104.341V28.426ZM101.849 23.862V21.552H95.4367V23.862H101.849ZM106.244 23.946C108.414 23.568 110.794 21.846 110.794 19.83V19.564H106.636V18.626H116.142V19.564H111.984V19.83C111.984 21.832 114.378 23.568 116.562 23.904L116.1 24.828C114.196 24.45 112.18 23.204 111.396 21.496C110.612 23.246 108.596 24.478 106.734 24.884L106.244 23.946ZM117.094 28.426H105.698V27.474H110.822V24.436H111.97V27.474H117.094V28.426ZM118.773 19.942V19.018H122.021V17.492H123.169V19.018H126.403V19.942H118.773ZM128.671 30.036H127.523V17.492H128.671V30.036ZM123.169 26.592C124.359 26.536 125.549 26.452 126.725 26.298L126.809 27.152C124.009 27.6 120.999 27.656 118.675 27.656L118.507 26.69C119.571 26.69 120.775 26.676 122.021 26.634V25.29C120.509 25.108 119.571 24.268 119.571 22.98C119.571 21.566 120.789 20.656 122.595 20.656C124.387 20.656 125.605 21.566 125.605 22.98C125.605 24.226 124.681 25.094 123.169 25.276V26.592ZM120.663 22.98C120.663 23.876 121.419 24.408 122.595 24.408C123.729 24.408 124.513 23.876 124.513 22.98C124.513 22.084 123.729 21.538 122.595 21.538C121.419 21.538 120.663 22.084 120.663 22.98Z" fill="#262626"/>
</svg>
