<svg width="212" height="48" viewBox="0 0 212 48" fill="none" xmlns="http://www.w3.org/2000/svg">
<rect width="212" height="48" rx="24" fill="#F5F5F5"/>
<g clip-path="url(#clip0_2395_26090)">
<rect x="38" y="14.3999" width="19.2" height="24" rx="1.52432" transform="rotate(90 38 14.3999)" fill="#ECEEF3"/>
<rect x="16.1602" y="19.6802" width="9.6" height="1.68" rx="0.84" fill="#BFC7D1"/>
<rect x="16.1602" y="23.1602" width="6.84" height="1.68" rx="0.84" fill="#BFC7D1"/>
<rect x="16.1602" y="26.6401" width="8.16" height="1.68" rx="0.84" fill="#BFC7D1"/>
<path d="M31.5797 24.0124C32.8755 24.0124 33.926 22.9619 33.926 21.6661C33.926 20.3703 32.8755 19.3198 31.5797 19.3198C30.2839 19.3198 29.2334 20.3703 29.2334 21.6661C29.2334 22.9619 30.2839 24.0124 31.5797 24.0124Z" fill="#3180F3"/>
<path d="M31.5802 24.7318C28.428 24.7318 27.2002 26.8822 27.2002 27.8803C27.2002 28.8783 29.8101 29.1457 31.5802 29.1457C33.3503 29.1457 35.9602 28.8783 35.9602 27.8803C35.9602 26.8822 34.7324 24.728 31.5802 24.728V24.7318Z" fill="#3180F3"/>
</g>
<path d="M61.21 21.356H63.926V17.492H65.088V26.76H63.926V22.294H61.21V21.356ZM55.568 18.458H61.266C61.266 19.2607 61.126 20.0167 60.846 20.726C60.5753 21.4353 60.1833 22.084 59.67 22.672C59.166 23.2507 58.5547 23.764 57.836 24.212C57.1173 24.66 56.3147 25.0287 55.428 25.318L54.938 24.394C55.6567 24.1607 56.3147 23.876 56.912 23.54C57.5093 23.1947 58.0273 22.812 58.466 22.392C58.9047 21.9627 59.2593 21.496 59.53 20.992C59.8007 20.488 59.9687 19.956 60.034 19.396H55.568V18.458ZM58.298 28.818H65.41V29.756H57.15V25.822H58.298V28.818ZM77.2249 20.726H79.0869V21.678H77.2249V24.982H76.0769V17.478H77.2249V20.726ZM68.0409 18.416H73.8369C73.8369 19.2093 73.7016 19.9513 73.4309 20.642C73.1602 21.3327 72.7729 21.958 72.2689 22.518C71.7649 23.078 71.1489 23.568 70.4209 23.988C69.7022 24.408 68.8856 24.7533 67.9709 25.024L67.5089 24.1C69.0022 23.652 70.1922 23.022 71.0789 22.21C71.9749 21.3887 72.4789 20.432 72.5909 19.34H68.0409V18.416ZM73.2909 25.15C73.9069 25.15 74.4669 25.206 74.9709 25.318C75.4749 25.43 75.9042 25.5933 76.2589 25.808C76.6229 26.0133 76.8982 26.2653 77.0849 26.564C77.2809 26.8627 77.3789 27.2033 77.3789 27.586C77.3789 27.9593 77.2809 28.3 77.0849 28.608C76.8982 28.9067 76.6229 29.1587 76.2589 29.364C75.9042 29.5787 75.4749 29.742 74.9709 29.854C74.4669 29.966 73.9069 30.022 73.2909 30.022C72.6749 30.022 72.1149 29.966 71.6109 29.854C71.1069 29.742 70.6729 29.5787 70.3089 29.364C69.9542 29.1587 69.6789 28.9067 69.4829 28.608C69.2962 28.3 69.2029 27.9593 69.2029 27.586C69.2029 27.2033 69.2962 26.8627 69.4829 26.564C69.6789 26.2653 69.9542 26.0133 70.3089 25.808C70.6729 25.5933 71.1069 25.43 71.6109 25.318C72.1149 25.206 72.6749 25.15 73.2909 25.15ZM73.2909 29.112C74.1962 29.112 74.9149 28.9767 75.4469 28.706C75.9789 28.4353 76.2449 28.062 76.2449 27.586C76.2449 27.1007 75.9789 26.7227 75.4469 26.452C74.9149 26.1813 74.1962 26.046 73.2909 26.046C72.3856 26.046 71.6669 26.1813 71.1349 26.452C70.6029 26.7227 70.3369 27.1007 70.3369 27.586C70.3369 28.062 70.6029 28.4353 71.1349 28.706C71.6669 28.9767 72.3856 29.112 73.2909 29.112ZM86.4778 27.488H91.6018V28.426H80.2198V27.488H85.3158V24.786H81.5638V18.374H82.6978V20.614H89.1098V18.374H90.2298V24.786H86.4778V27.488ZM82.6978 21.552V23.862H89.1098V21.552H82.6978ZM100.253 18.794V19.718H92.9727V18.794H96.0387V17.352H97.1867V18.794H100.253ZM102.143 17.492H103.305V25.08H102.143V22.238H100.057V21.3H102.143V17.492ZM99.5107 22.602C99.5107 22.938 99.4361 23.246 99.2867 23.526C99.1467 23.7967 98.9461 24.03 98.6847 24.226C98.4327 24.4127 98.1294 24.562 97.7747 24.674C97.4201 24.7767 97.0327 24.828 96.6127 24.828C96.1834 24.828 95.7914 24.7767 95.4367 24.674C95.0821 24.562 94.7741 24.4127 94.5127 24.226C94.2607 24.03 94.0601 23.7967 93.9107 23.526C93.7707 23.246 93.7007 22.938 93.7007 22.602C93.7007 22.266 93.7707 21.9627 93.9107 21.692C94.0601 21.412 94.2607 21.174 94.5127 20.978C94.7741 20.782 95.0821 20.6327 95.4367 20.53C95.7914 20.418 96.1834 20.362 96.6127 20.362C97.0327 20.362 97.4201 20.418 97.7747 20.53C98.1294 20.6327 98.4327 20.782 98.6847 20.978C98.9461 21.174 99.1467 21.412 99.2867 21.692C99.4361 21.9627 99.5107 22.266 99.5107 22.602ZM94.7927 22.602C94.7927 23.022 94.9607 23.358 95.2967 23.61C95.6421 23.8527 96.0807 23.974 96.6127 23.974C97.1447 23.974 97.5787 23.8527 97.9147 23.61C98.2601 23.358 98.4327 23.022 98.4327 22.602C98.4327 22.182 98.2601 21.8507 97.9147 21.608C97.5787 21.356 97.1447 21.23 96.6127 21.23C96.0807 21.23 95.6421 21.356 95.2967 21.608C94.9607 21.8507 94.7927 22.182 94.7927 22.602ZM95.1427 29.868V25.752H103.305V29.868H95.1427ZM96.2627 26.662V28.944H102.185V26.662H96.2627ZM120.42 22.546V23.512H118.348V30.036H117.2V17.492H118.348V22.546H120.42ZM112.916 19.718V21.314C112.916 21.818 113 22.3267 113.168 22.84C113.336 23.344 113.565 23.8247 113.854 24.282C114.153 24.7393 114.498 25.1547 114.89 25.528C115.282 25.892 115.707 26.1813 116.164 26.396L115.506 27.32C114.806 26.9653 114.176 26.4473 113.616 25.766C113.056 25.0847 112.636 24.3193 112.356 23.47C112.216 23.9273 112.034 24.3707 111.81 24.8C111.596 25.22 111.348 25.612 111.068 25.976C110.788 26.3307 110.485 26.6527 110.158 26.942C109.841 27.222 109.505 27.4507 109.15 27.628L108.478 26.718C108.926 26.494 109.351 26.186 109.752 25.794C110.154 25.402 110.504 24.9633 110.802 24.478C111.101 23.9927 111.339 23.4793 111.516 22.938C111.694 22.3873 111.782 21.846 111.782 21.314V19.718H108.912V18.766H115.702V19.718H112.916ZM130.611 17.478H131.773V24.968H130.611V23.316H127.363V22.378H130.611V20.656H127.545C127.125 21.6453 126.453 22.49 125.529 23.19C124.605 23.8807 123.453 24.422 122.071 24.814L121.609 23.89C122.365 23.6847 123.051 23.428 123.667 23.12C124.283 22.812 124.811 22.462 125.249 22.07C125.688 21.678 126.038 21.244 126.299 20.768C126.561 20.292 126.719 19.788 126.775 19.256H122.267V18.318H128.007C128.007 18.8033 127.951 19.27 127.839 19.718H130.611V17.478ZM123.373 26.452V25.528H131.773V30.008H130.611V26.452H123.373ZM144.232 21.272V22.196H135.594V17.954H144.12V18.878H136.742V21.272H144.232ZM134.166 23.596H145.534V24.52H134.166V23.596ZM135.426 26.956V26.032H144.148V30.106H142.986V26.956H135.426ZM157.195 17.492V23.988H156.047V17.492H157.195ZM154.507 22.728L153.933 23.624C153.205 23.372 152.566 22.9987 152.015 22.504C151.474 22 151.059 21.412 150.769 20.74C150.499 21.468 150.088 22.1027 149.537 22.644C148.987 23.1853 148.333 23.5913 147.577 23.862L146.989 22.966C147.465 22.798 147.899 22.574 148.291 22.294C148.683 22.014 149.019 21.692 149.299 21.328C149.579 20.964 149.794 20.5673 149.943 20.138C150.102 19.7087 150.181 19.2653 150.181 18.808V17.856H151.329V18.808C151.329 19.2373 151.409 19.6573 151.567 20.068C151.726 20.4693 151.945 20.8427 152.225 21.188C152.505 21.5333 152.841 21.8413 153.233 22.112C153.625 22.3733 154.05 22.5787 154.507 22.728ZM150.237 28.986H157.629V29.896H149.103V26.774H156.075V25.528H149.075V24.618H157.209V27.642H150.237V28.986ZM167.106 18.626V19.494H159.896V18.626H162.934V17.394H164.082V18.626H167.106ZM171.222 21.286V22.238H169.374V25.906H168.226V17.492H169.374V21.286H171.222ZM167.484 24.226L167.568 25.052C166.896 25.1733 166.21 25.2667 165.51 25.332C164.819 25.3973 164.133 25.4487 163.452 25.486C162.78 25.514 162.127 25.5327 161.492 25.542C160.857 25.542 160.265 25.542 159.714 25.542L159.588 24.618C160.092 24.618 160.619 24.618 161.17 24.618C161.73 24.6087 162.318 24.5947 162.934 24.576V23.666C162.206 23.5913 161.627 23.4 161.198 23.092C160.778 22.7747 160.568 22.35 160.568 21.818C160.568 21.23 160.829 20.7727 161.352 20.446C161.884 20.1193 162.603 19.956 163.508 19.956C164.385 19.956 165.09 20.1193 165.622 20.446C166.163 20.7727 166.434 21.23 166.434 21.818C166.434 22.3313 166.224 22.7513 165.804 23.078C165.384 23.3953 164.81 23.5913 164.082 23.666V24.534C164.67 24.506 165.244 24.4687 165.804 24.422C166.364 24.3753 166.924 24.31 167.484 24.226ZM161.66 21.818C161.66 22.1447 161.823 22.406 162.15 22.602C162.486 22.798 162.939 22.896 163.508 22.896C164.068 22.896 164.511 22.798 164.838 22.602C165.174 22.406 165.342 22.1447 165.342 21.818C165.342 21.4913 165.174 21.2347 164.838 21.048C164.511 20.852 164.068 20.754 163.508 20.754C162.939 20.754 162.486 20.852 162.15 21.048C161.823 21.2347 161.66 21.4913 161.66 21.818ZM161.114 27.446V26.536H169.374V30.036H168.226V27.446H161.114ZM182.687 17.492V26.662H181.539V17.492H182.687ZM179.229 21.44C179.229 21.8973 179.145 22.3173 178.977 22.7C178.809 23.0733 178.576 23.4 178.277 23.68C177.988 23.9507 177.642 24.1653 177.241 24.324C176.84 24.4733 176.406 24.548 175.939 24.548C175.472 24.548 175.038 24.4733 174.637 24.324C174.245 24.1653 173.9 23.9507 173.601 23.68C173.312 23.4 173.083 23.0733 172.915 22.7C172.756 22.3173 172.677 21.8973 172.677 21.44C172.677 20.992 172.756 20.5813 172.915 20.208C173.083 19.8253 173.312 19.4987 173.601 19.228C173.9 18.948 174.245 18.7333 174.637 18.584C175.038 18.4347 175.472 18.36 175.939 18.36C176.406 18.36 176.84 18.4347 177.241 18.584C177.642 18.7333 177.988 18.948 178.277 19.228C178.576 19.4987 178.809 19.8253 178.977 20.208C179.145 20.5813 179.229 20.992 179.229 21.44ZM173.797 21.44C173.797 21.748 173.848 22.0327 173.951 22.294C174.063 22.5553 174.212 22.7793 174.399 22.966C174.595 23.1527 174.824 23.2973 175.085 23.4C175.346 23.5027 175.631 23.554 175.939 23.554C176.247 23.554 176.532 23.5027 176.793 23.4C177.064 23.2973 177.297 23.1527 177.493 22.966C177.689 22.7793 177.838 22.5553 177.941 22.294C178.053 22.0327 178.109 21.748 178.109 21.44C178.109 21.132 178.053 20.852 177.941 20.6C177.838 20.348 177.689 20.1287 177.493 19.942C177.297 19.7553 177.064 19.6107 176.793 19.508C176.532 19.4053 176.247 19.354 175.939 19.354C175.631 19.354 175.346 19.4053 175.085 19.508C174.824 19.6107 174.595 19.7553 174.399 19.942C174.212 20.1287 174.063 20.348 173.951 20.6C173.848 20.852 173.797 21.132 173.797 21.44ZM175.757 28.818H183.065V29.756H174.609V25.724H175.757V28.818ZM194.32 17.478H195.468V30.05H194.32V22.672H191.408V21.734H194.32V17.478ZM189.518 18.556V20.81C189.518 21.3793 189.602 21.944 189.77 22.504C189.938 23.0547 190.167 23.5727 190.456 24.058C190.755 24.5433 191.1 24.9773 191.492 25.36C191.884 25.7333 192.309 26.0273 192.766 26.242L192.094 27.152C191.394 26.7973 190.764 26.2653 190.204 25.556C189.653 24.8467 189.233 24.0533 188.944 23.176C188.664 24.1093 188.249 24.9493 187.698 25.696C187.157 26.4427 186.531 27.0027 185.822 27.376L185.122 26.466C185.579 26.242 186.004 25.9293 186.396 25.528C186.788 25.1267 187.129 24.674 187.418 24.17C187.717 23.666 187.95 23.1247 188.118 22.546C188.286 21.9673 188.37 21.3887 188.37 20.81V18.556H189.518Z" fill="#262626"/>
<defs>
<clipPath id="clip0_2395_26090">
<rect width="24" height="24" fill="white" transform="translate(14 12)"/>
</clipPath>
</defs>
</svg>
